<svg xmlns:svg="http://www.w3.org/2000/svg" xmlns="http://www.w3.org/2000/svg" width="234.4" height="138" viewBox="0 0 830.54 488.96" version="1.1"><style>.s0{fill:#FFFBEB;}</style><g transform="translate(-110.90888,-435.83441)"><g transform="translate(1.0762516,126.60038)"><g transform="matrix(0,-1,1,0,0,0)" fill="#FFFBEB"><path d="m-798.11 346.38 0 594 135.36 0 0-234.72 181.44 234.72 172.08 0-204.48-245.52c72.72-23.04 121.68-82.8 121.68-172.08 0-116.64-83.52-176.4-193.68-176.4l-212.4 0zm135.36 263.52 0-155.52 15.84 0c51.12 0 112.32 3.6 112.32 77.76 0 74.16-61.2 77.76-112.32 77.76l-15.84 0z" fill="#FFFBEB"/></g><g transform="matrix(0,-1,-1,0,0,0)" fill="#FFFBEB"><path d="m-798.2-703.83 0 594 135.36 0 0-234.72 181.44 234.72 172.08 0-204.48-245.52c72.72-23.04 121.68-82.8 121.68-172.08 0-116.64-83.52-176.4-193.68-176.4l-212.4 0zm135.36 263.52 0-155.52 15.84 0c51.12 0 112.32 3.6 112.32 77.76 0 74.16-61.2 77.76-112.32 77.76l-15.84 0z" fill="#FFFBEB"/></g></g></g></svg>