<?xml version="1.0" encoding="UTF-8" standalone="no"?>

<svg
   xmlns:dc="http://purl.org/dc/elements/1.1/"
   xmlns:cc="http://creativecommons.org/ns#"
   xmlns:rdf="http://www.w3.org/1999/02/22-rdf-syntax-ns#"
   xmlns:svg="http://www.w3.org/2000/svg"
   xmlns="http://www.w3.org/2000/svg"
   xmlns:sodipodi="http://sodipodi.sourceforge.net/DTD/sodipodi-0.dtd"
   xmlns:inkscape="http://www.inkscape.org/namespaces/inkscape"
   width="234.3981mm"
   height="137.9957mm"
   viewBox="0 0 830.54445 488.96113"
   id="svg4644"
   version="1.1"
   inkscape:version="0.91 r13725"
   sodipodi:docname="logo.svg">
  <defs
     id="defs4646" />
  <metadata
     id="metadata4649">
    <rdf:RDF>
      <cc:Work
         rdf:about="The logo for Reach Supply">
        <dc:format>image/svg+xml</dc:format>
        <dc:type
           rdf:resource="http://purl.org/dc/dcmitype/StillImage" />
        <dc:title>Reach Supply Logo</dc:title>
      </cc:Work>
    </rdf:RDF>
  </metadata>
  <g
     inkscape:label="Layer 1"
     inkscape:groupmode="layer"
     id="layer1"
     transform="translate(-110.90888,-435.83441)">
    <g
       id="g5239">
      <g
         id="g4186"
         transform="translate(1.0762516,126.60038)">
        <g
           transform="matrix(0,-1,1,0,0,0)"
           style="opacity:1;fill:#80061C;fill-opacity:1;stroke:none;stroke-width:1px;stroke-linecap:butt;stroke-linejoin:miter;stroke-opacity:1"
           id="text4722-8">
          <path
             d="m -798.11403,346.37708 0,594 135.36,0 0,-234.72 181.44,234.72 172.08,0 -204.48,-245.52 c 72.72,-23.04 121.68,-82.8 121.68,-172.08 0,-116.64 -83.52,-176.4 -193.68,-176.4 l -212.4,0 z m 135.36,263.52 0,-155.52 15.84,0 c 51.12,0 112.32,3.6 112.32,77.76 0,74.16 -61.2,77.76 -112.32,77.76 l -15.84,0 z"
             style="fill:#80061C;fill-opacity:1"
             id="path5247" />
        </g>
        <g
           transform="matrix(0,-1,-1,0,0,0)"
           style="fill:#80061C;fill-opacity:1;stroke:none;stroke-width:1px;stroke-linecap:butt;stroke-linejoin:miter;stroke-opacity:1"
           id="text4722-66">
          <path
             d="m -798.19514,-703.83263 0,594 135.36,0 0,-234.72 181.44,234.72 172.08,0 -204.48,-245.52 c 72.72,-23.04 121.68,-82.8 121.68,-172.08 0,-116.64 -83.52,-176.4 -193.68,-176.4 l -212.4,0 z m 135.36,263.52 0,-155.52 15.84,0 c 51.12,0 112.32,3.6 112.32,77.76 0,74.16 -61.2,77.76 -112.32,77.76 l -15.84,0 z"
             style="fill:#80061C;fill-opacity:1"
             id="path5250" />
        </g>
      </g>
    </g>
  </g>
</svg>
